<svg xmlns="http://www.w3.org/2000/svg" width="263.591" height="89.641" viewBox="0 0 263.591 89.641">
  <g id="logo" transform="translate(-134.5 -42)">
    <g id="Group_6" data-name="Group 6" transform="translate(136.5 44)">
      <path id="Path_51" data-name="Path 51" d="M-957.245-16a19,19,0,0,0-19-19h-41.019a3.033,3.033,0,0,0-2.161.9L-1041.4-12.126a3.032,3.032,0,0,0-.9,2.161V34.161a15.985,15.985,0,0,0,10.266,14.9,15.679,15.679,0,0,0,5.673,1.036h5.538a3.033,3.033,0,0,0,2.161-.9L-997.9,28.443a3.052,3.052,0,0,0-2.161-5.223h-10.9a4.42,4.42,0,0,1-4.413-4.413V-3.661a4.42,4.42,0,0,1,4.413-4.413h22.468a4.42,4.42,0,0,1,4.413,4.413V15.43a3.065,3.065,0,0,0,3.062,3.062h20.757A3.065,3.065,0,0,0-957.2,15.43Z" transform="translate(1042.3 35)" fill="#ef2737" stroke="#fff" stroke-width="4"/>
      <path id="Path_52" data-name="Path 52" d="M-974.319,118.475l25.215-25.17a1.4,1.4,0,0,1,.991-.405l22.829.135a1.42,1.42,0,0,1,.991,2.431l-25.305,25.08a1.4,1.4,0,0,1-.991.405l-22.784-.09A1.39,1.39,0,0,1-974.319,118.475Z" transform="translate(1005.163 -35.311)" fill="#ef2737" stroke="#fff" stroke-width="4"/>
    </g>
    <path id="Path_1643" data-name="Path 1643" d="M38.173-41.3a29.555,29.555,0,0,1,7.64.855,11.872,11.872,0,0,1,5.133,2.714,10.639,10.639,0,0,1,2.861,4.809,25.328,25.328,0,0,1,.885,7.2v9.145q0,7.2-2.685,10.826T43.07-1.3l6.785,9.381A1.121,1.121,0,0,1,50,8.968q-.089.59-.915.59H41.536a2.238,2.238,0,0,1-1.062-.177,2.4,2.4,0,0,1-.59-.531L33.1-1H19.942a30.2,30.2,0,0,1-7.611-.826,11.628,11.628,0,0,1-5.1-2.684A10.855,10.855,0,0,1,4.337-9.352a24.864,24.864,0,0,1-.915-7.227v-9.145a24.558,24.558,0,0,1,.915-7.2,10.86,10.86,0,0,1,2.891-4.809,11.87,11.87,0,0,1,5.1-2.714,29.21,29.21,0,0,1,7.611-.855ZM12.449-17.228a16.517,16.517,0,0,0,.384,3.865A5.294,5.294,0,0,0,14.1-10.885a4.932,4.932,0,0,0,2.39,1.3A15.757,15.757,0,0,0,20.3-9.2H37.819a15.757,15.757,0,0,0,3.806-.383,4.932,4.932,0,0,0,2.389-1.3,5.294,5.294,0,0,0,1.268-2.478,16.517,16.517,0,0,0,.384-3.865v-7.847a16.517,16.517,0,0,0-.384-3.865,5.294,5.294,0,0,0-1.268-2.478,4.932,4.932,0,0,0-2.389-1.3,15.757,15.757,0,0,0-3.806-.383H20.3a15.757,15.757,0,0,0-3.806.383,4.932,4.932,0,0,0-2.39,1.3,5.294,5.294,0,0,0-1.268,2.478,16.517,16.517,0,0,0-.384,3.865ZM84.37-41.3a7.257,7.257,0,0,1,3.776.915,9.311,9.311,0,0,1,3.009,3.569L110.684-1.357a1.222,1.222,0,0,1,.147.973q-.148.384-.855.384h-7.493a1.351,1.351,0,0,1-1.357-.767L96.937-8.378H69.207L65.136-.767A1.423,1.423,0,0,1,63.779,0h-7.67q-.767,0-.914-.384a1.222,1.222,0,0,1,.147-.973L74.694-36.816a9.958,9.958,0,0,1,2.891-3.569,5.955,5.955,0,0,1,3.3-.915ZM72.924-15.222h20.3L83.839-32.509a.721.721,0,0,0-.649-.413h-.354a.721.721,0,0,0-.649.413ZM108.383-41.3a1.586,1.586,0,0,1,.855.177,1.714,1.714,0,0,1,.5.59L127.027-8.791a.693.693,0,0,0,.708.413h.295a.721.721,0,0,0,.649-.413L145.73-40.533a1.351,1.351,0,0,1,1.357-.767h7.729q.708,0,.855.383a1.222,1.222,0,0,1-.148.973L136.172-4.484a9.593,9.593,0,0,1-2.891,3.6,6.1,6.1,0,0,1-3.3.885h-3.422a7.414,7.414,0,0,1-3.805-.885,9.132,9.132,0,0,1-2.979-3.6L100.182-39.943a1.222,1.222,0,0,1-.147-.973q.148-.383.915-.383Zm58.41,0a1.147,1.147,0,0,1,1.3,1.3V-1.3a1.147,1.147,0,0,1-1.3,1.3h-6.372q-1.357,0-1.357-1.3V-40q0-1.3,1.357-1.3Z" transform="translate(230 107)"/>
  </g>
</svg>
